{"title":"Bloody Christmas (2012)","uid":8096930,"size":1573091426,"categoryP":"video","categoryS":"movies","magnet":"?xt=urn:btih:cd5eed39f5cf674e771173955c36dc561d7d351f&amp;dn=Bloody+Christmas+%282012%29&amp;tr=udp%3A%2F%2Ftracker.openbittorrent.com%3A80&amp;tr=udp%3A%2F%2Fopen.demonii.com%3A1337&amp;tr=udp%3A%2F%2Ftracker.coppersurfer.tk%3A6969&amp;tr=udp%3A%2F%2Fexodus.desync.com%3A6969","seeders":0,"leechers":1,"uploader":"RadioResearch","files":3,"time":1359862276,"description":"*******************************************************************************\n                            Bloody Christmas (2012)\n*******************************************************************************\n\n-------------------------------------------------------------------------------\n                              General Information\n-------------------------------------------------------------------------------\nType.................: Movie\n\n\n\nVideo Format.........: AVI\nVideo Bitrate........: 2301\nResolution...........: 720 x 404\nColor................: 8 bit\nFPS..................: 29.97\nSource...............: DVD 16x9\nOriginal Format......: NTSC\nGenre................: Horror\nIMDb Rating..........: None yet\nMovie Information....: http://www.imdb.com/title/tt2148871\n\n-------------------------------------------------------------------------------\n                               Post Information\n-------------------------------------------------------------------------------\nPosted by............: RadioResearch\nPosted on............: 2/2/2013\n\n-------------------------------------------------------------------------------\n                                 Release Notes\n-------------------------------------------------------------------------------\nIn a small town Police are in search for a child murderer. Meanwhile Rich Tague \na has been 80's action movie star, is attempting to figure out the meaning of \nChristmas as he plays Santa on a Public Access T.V show. He fantasizes about \nmurdering the people that do him wrong. Will he have the strength to not be on \nhis own naughty list? \n\nWish this would have come out at Xmas time!!\n\nEnjoy!\n\nRadioResearch\n\nGeneral\nComplete name                            : G:AVIBloody Christmas (2012)Bloody \nChristmas_Title2.avi\nFormat                                   : AVI\nFormat/Info                              : Audio Video Interleave\nFormat profile                           : OpenDML\nFile size                                : 1.47 GiB\nDuration                                 : 1h 31mn\nOverall bit rate                         : 2 301 Kbps\nMovie name                               : Bloody_Christmas\nDirector                                 : Michael_Shershenovich\nGenre                                    : Thriller\nWriting application                      : MEncoder 5.0\nWriting library                          : [= DigiArty videodll! =]\n\nVideo\nID                                       : 0\nFormat                                   : MPEG-4 Visual\nFormat profile                           : Simple@L1\nFormat settings, BVOP                    : No\nFormat settings, QPel                    : No\nFormat settings, GMC                     : No warppoints\nFormat settings, Matrix                  : Default (H.263)\nCodec ID                                 : DX50\nCodec ID/Hint                            : DivX 5\nDuration                                 : 1h 31mn\nBit rate                                 : 2 102 Kbps\nWidth                                    : 720 pixels\nHeight                                   : 404 pixels\nDisplay aspect ratio                     : 16:9\nFrame rate                               : 29.970 fps\nColor space                              : YUV\nChroma subsampling                       : 4:2:0\nBit depth                                : 8 bits\nScan type                                : Progressive\nCompression mode                         : Lossy\nBits/(Pixel*Frame)                       : 0.241\nStream size                              : 1.34 GiB (91%)\nWriting library                          : Lavc54.71.100\n\nAudio\nID                                       : 1\nFormat                                   : AC-3\nFormat/Info                              : Audio Coding 3\nMode extension                           : CM (complete main)\nFormat settings, Endianness              : Big\nCodec ID                                 : 2000\nDuration                                 : 1h 31mn\nBit rate mode                            : Constant\nBit rate                                 : 192 Kbps\nChannel(s)                               : 2 channels\nChannel positions                        : Front: L R\nSampling rate                            : 48.0 KHz\nBit depth                                : 16 bits\nCompression mode                         : Lossy\nStream size                              : 125 MiB (8%)\nAlignment                                : Split accross interleaves\nInterleave, duration                     : 500 ms (14.98 video frames)\nInterleave, preload duration             : 500 ms\n\n\n\n-------------------------------------------------------------------------------\nGenerated with Cool NFO Creator - http://fly.to/coolbeans\n-------------------------------------------------------------------------------\n","torrent":{"xt":"urn:btih:cd5eed39f5cf674e771173955c36dc561d7d351f","amp;dn":"Bloody+Christmas+%282012%29","amp;tr":["udp%3A%2F%2Ftracker.openbittorrent.com%3A80","udp%3A%2F%2Fopen.demonii.com%3A1337","udp%3A%2F%2Ftracker.coppersurfer.tk%3A6969","udp%3A%2F%2Fexodus.desync.com%3A6969"],"infoHash":"cd5eed39f5cf674e771173955c36dc561d7d351f","infoHashBuffer":{"type":"Buffer","data":[205,94,237,57,245,207,103,78,119,17,115,149,92,54,220,86,29,125,53,31]},"announce":[],"urlList":[]}}